<?xml version="1.0" standalone="no"?>
<!DOCTYPE svg PUBLIC "-//W3C//DTD SVG 20010904//EN"
 "http://www.w3.org/TR/2001/REC-SVG-20010904/DTD/svg10.dtd">
<svg version="1.0" xmlns="http://www.w3.org/2000/svg"
 width="223.000000pt" height="160.000000pt" viewBox="0 0 223.000000 160.000000"
 preserveAspectRatio="xMidYMid meet">

<g transform="translate(0.000000,160.000000) scale(0.100000,-0.100000)"
fill="#000000" stroke="none">
<path d="M0 800 l0 -800 1115 0 1115 0 0 800 0 800 -1115 0 -1115 0 0 -800z
m306 -576 l31 -56 32 57 c18 31 37 55 44 52 16 -5 17 -139 0 -144 -8 -3 -13
11 -15 39 l-3 43 -24 -42 c-14 -24 -28 -43 -32 -43 -4 0 -19 19 -33 43 l-26
42 0 -42 c0 -32 -4 -43 -15 -43 -12 0 -15 15 -15 75 0 93 13 97 56 19z m184
-19 c0 -60 -3 -75 -15 -75 -12 0 -15 15 -15 75 0 60 3 75 15 75 12 0 15 -15
15 -75z m240 65 c0 -5 -25 -10 -55 -10 l-55 0 0 -50 0 -50 55 0 c42 0 55 -3
55 -15 0 -12 -13 -15 -58 -15 -32 0 -63 5 -70 12 -7 7 -12 39 -12 75 l0 63 70
0 c40 0 70 -4 70 -10z m97 -42 l53 -52 0 52 c0 40 4 52 15 52 12 0 15 -14 15
-69 0 -43 -5 -73 -12 -77 -7 -5 -30 13 -59 44 -26 29 -50 52 -53 52 -3 0 -6
-22 -6 -50 0 -27 -4 -50 -10 -50 -6 0 -10 32 -10 75 0 41 3 75 7 75 4 0 31
-23 60 -52z m253 42 c0 -5 -13 -10 -30 -10 l-30 0 0 -65 c0 -51 -3 -65 -15
-65 -12 0 -15 14 -15 65 l0 65 -30 0 c-16 0 -30 5 -30 10 0 6 32 10 75 10 43
0 75 -4 75 -10z m168 -26 c2 -20 -4 -36 -18 -49 l-20 -18 22 -24 c21 -23 21
-23 1 -23 -11 0 -28 9 -38 20 -10 11 -26 22 -36 25 -36 12 -22 35 21 35 36 0
40 3 40 25 0 23 -4 25 -45 25 l-44 0 -3 -62 c-2 -38 -8 -63 -15 -66 -10 -3
-13 16 -13 73 l0 76 73 -3 72 -3 3 -31z m182 -39 c0 -60 -3 -75 -15 -75 -8 0
-15 9 -15 20 0 17 -7 20 -50 20 -43 0 -50 -3 -50 -20 0 -11 -4 -20 -10 -20 -5
0 -10 25 -10 55 0 75 20 95 95 95 l55 0 0 -75z m162 58 c12 -11 18 -30 18 -59
0 -56 -27 -77 -97 -72 l-48 3 -3 73 -3 72 57 0 c39 0 63 -5 76 -17z m78 -58
c0 -60 -3 -75 -15 -75 -12 0 -15 15 -15 75 0 60 3 75 15 75 12 0 15 -15 15
-75z m170 65 c0 -5 -13 -10 -30 -10 l-30 0 0 -65 c0 -51 -3 -65 -15 -65 -12 0
-15 14 -15 65 l0 65 -30 0 c-16 0 -30 5 -30 10 0 6 32 10 75 10 43 0 75 -4 75
-10z m160 -65 c0 -43 -4 -75 -10 -75 -5 0 -10 9 -10 20 0 17 -7 20 -50 20 -43
0 -50 -3 -50 -20 0 -11 -7 -20 -15 -20 -24 0 -20 91 6 124 18 22 28 26 75 26
l54 0 0 -75z m-1282 3 c-3 -7 -23 -14 -46 -16 -33 -2 -42 0 -42 12 0 12 11 16
46 16 32 0 44 -4 42 -12z"/>
<path d="M1340 253 c-17 -6 -40 -32 -40 -45 0 -4 23 -8 50 -8 49 0 50 1 50 30
0 25 -4 30 -22 29 -13 0 -30 -3 -38 -6z"/>
<path d="M1490 210 l0 -50 40 0 c30 0 42 5 50 21 25 45 -4 78 -67 79 -21 0
-23 -5 -23 -50z"/>
<path d="M1903 245 c-40 -28 -29 -45 28 -45 49 0 50 1 47 28 -4 33 -41 41 -75
17z"/>
</g>
</svg>
